<svg width="29" height="29" viewBox="0 0 29 29" fill="none" xmlns="http://www.w3.org/2000/svg">
<path fill-rule="evenodd" clip-rule="evenodd" d="M1.5087 28.4244C1.87964 28.6279 2.29539 28.7359 2.71848 28.7387C3.06857 28.7372 3.41467 28.6643 3.73556 28.5243L7.57389 26.8798C10.5302 28.5022 13.9725 29.0036 17.2688 28.2921C20.5651 27.5805 23.4941 25.7036 25.5178 23.0062C27.5416 20.3087 28.5243 16.9717 28.2855 13.6079C28.0467 10.2442 26.6025 7.07947 24.218 4.69495C21.8334 2.31043 18.6687 0.866165 15.305 0.627375C11.9412 0.388584 8.6042 1.3713 5.90673 3.39506C3.20927 5.41881 1.33242 8.34776 0.620843 11.6441C-0.0907381 14.9404 0.410714 18.3827 2.03312 21.339L0.388567 25.1773C0.218955 25.5618 0.14883 25.9827 0.184653 26.4014C0.220475 26.82 0.361093 27.2229 0.593549 27.573C0.823259 27.9283 1.13775 28.2209 1.5087 28.4244ZM7.99926 16.6309C7.99926 15.9827 8.52468 15.4573 9.17282 15.4573H19.3437C19.9918 15.4573 20.5172 15.9827 20.5172 16.6309C20.5172 17.279 19.9918 17.8044 19.3437 17.8044H9.17282C8.52468 17.8044 7.99926 17.279 7.99926 16.6309ZM9.17282 10.7631C8.52468 10.7631 7.99926 11.2885 7.99926 11.9366C7.99926 12.5848 8.52468 13.1102 9.17282 13.1102H13.0847C13.7328 13.1102 14.2583 12.5848 14.2583 11.9366C14.2583 11.2885 13.7328 10.7631 13.0847 10.7631H9.17282Z" fill="white"/>
</svg>
