<svg width="29" height="29" viewBox="0 0 29 29" fill="none" xmlns="http://www.w3.org/2000/svg">
<path d="M25.6989 12.2171H16.7957V3.32126C16.7957 1.91315 15.6596 0.771484 14.2514 0.771484C12.8433 0.771484 11.7078 1.91315 11.7078 3.32187V12.2233H2.80029C1.39218 12.2233 0.247431 13.3649 0.248048 14.7736C0.247431 15.4774 0.531767 16.1225 0.992502 16.5833C1.45385 17.0452 2.09037 17.337 2.7935 17.337H11.7078V26.226C11.7078 26.9304 11.9872 27.5681 12.4486 28.0283C12.9099 28.4896 13.5446 28.7752 14.249 28.7752C15.6565 28.7752 16.7957 27.6335 16.7957 26.226V17.3364H25.6989C27.107 17.3364 28.2487 16.1848 28.248 14.7767C28.2474 13.3692 27.1058 12.2171 25.6989 12.2171Z" fill="#F28126"/>
</svg>
