<svg width="35" height="45" viewBox="0 0 35 45" fill="none" xmlns="http://www.w3.org/2000/svg">
<path d="M30.2273 15.9091V12.7273C30.2273 9.35179 28.8864 6.11456 26.4995 3.72773C24.1127 1.34091 20.8755 0 17.5 0C14.1245 0 10.8873 1.34091 8.50046 3.72773C6.11363 6.11456 4.77273 9.35179 4.77273 12.7273V15.9091C3.50692 15.9091 2.29296 16.4119 1.3979 17.307C0.50284 18.202 0 19.416 0 20.6818V39.7727C0 41.0385 0.50284 42.2525 1.3979 43.1476C2.29296 44.0426 3.50692 44.5455 4.77273 44.5455H30.2273C31.4931 44.5455 32.707 44.0426 33.6021 43.1476C34.4972 42.2525 35 41.0385 35 39.7727V20.6818C35 19.416 34.4972 18.202 33.6021 17.307C32.707 16.4119 31.4931 15.9091 30.2273 15.9091ZM7.95455 12.7273C7.95455 10.1957 8.96023 7.76774 10.7503 5.97762C12.5405 4.1875 14.9684 3.18182 17.5 3.18182C20.0316 3.18182 22.4595 4.1875 24.2497 5.97762C26.0398 7.76774 27.0455 10.1957 27.0455 12.7273V15.9091H7.95455V12.7273ZM31.8182 39.7727C31.8182 40.1947 31.6506 40.5993 31.3522 40.8977C31.0539 41.196 30.6492 41.3636 30.2273 41.3636H4.77273C4.35079 41.3636 3.94614 41.196 3.64778 40.8977C3.34943 40.5993 3.18182 40.1947 3.18182 39.7727V20.6818C3.18182 20.2599 3.34943 19.8552 3.64778 19.5569C3.94614 19.2585 4.35079 19.0909 4.77273 19.0909H30.2273C30.6492 19.0909 31.0539 19.2585 31.3522 19.5569C31.6506 19.8552 31.8182 20.2599 31.8182 20.6818V39.7727Z" fill="#F28126"/>
<path d="M17.5001 31.8182C18.3787 31.8182 19.091 31.1059 19.091 30.2273C19.091 29.3486 18.3787 28.6364 17.5001 28.6364C16.6215 28.6364 15.9092 29.3486 15.9092 30.2273C15.9092 31.1059 16.6215 31.8182 17.5001 31.8182Z" fill="#F28126"/>
<path d="M11.1363 31.8182C12.015 31.8182 12.7272 31.1059 12.7272 30.2273C12.7272 29.3486 12.015 28.6364 11.1363 28.6364C10.2577 28.6364 9.54541 29.3486 9.54541 30.2273C9.54541 31.1059 10.2577 31.8182 11.1363 31.8182Z" fill="#F28126"/>
<path d="M23.8639 31.8182C24.7425 31.8182 25.4548 31.1059 25.4548 30.2273C25.4548 29.3486 24.7425 28.6364 23.8639 28.6364C22.9852 28.6364 22.2729 29.3486 22.2729 30.2273C22.2729 31.1059 22.9852 31.8182 23.8639 31.8182Z" fill="#F28126"/>
</svg>
